<?xml version="1.0" encoding="UTF-8"?>
<svg width="64px" height="64px" viewBox="0 0 64 64" version="1.1" xmlns="http://www.w3.org/2000/svg" xmlns:xlink="http://www.w3.org/1999/xlink">
    <!-- Generator: Sketch 48.2 (47327) - http://www.bohemiancoding.com/sketch -->
    <title>internet2</title>
    <desc>Created with Sketch.</desc>
    <defs></defs>
    <g id="Page-1" stroke="none" stroke-width="1" fill="none" fill-rule="evenodd">
        <g id="internet2" fill="white" fill-rule="nonzero">
            <path d="M32,27.759 C28.946,27.759 26.469,30.236 26.469,33.289 C26.469,36.347 28.946,38.823 32,38.823 C35.057,38.823 37.532,36.346 37.532,33.289 C37.532,30.235 35.057,27.759 32,27.759 Z M32,35.914 C30.615,35.914 29.492,34.791 29.492,33.403 C29.492,32.018 30.615,30.898 32,30.898 C33.387,30.898 34.509,32.019 34.509,33.403 C34.509,34.791 33.387,35.914 32,35.914 Z" id="Shape"></path>
            <g id="Group">
                <path d="M51.367,0.729 C51.367,0.729 50.557,-0.232 49.547,0.072 C48.535,0.375 48.421,1.033 48.325,1.362 C48.23,1.69 48.256,2.323 49.015,2.98 C49.774,3.638 52.026,5.763 53.289,7.458 C54.555,9.152 58.45,14.794 59.36,21.017 C59.967,25.924 60.372,28.908 58.703,34.827 C57.742,37.863 56.932,39.836 56.932,39.836 C56.932,39.836 56.097,41.102 56.627,41.91 C57.158,42.72 57.817,42.871 58.398,42.72 C58.98,42.569 59.257,42.341 59.687,41.506 C60.118,40.672 62.311,36.532 63.019,29.146 C63.187,26.685 63.354,22.469 61.77,17.208 C61.198,14.983 60.557,13.127 57.825,8.237 C55.229,4.56 54.251,3.408 51.367,0.729 Z" id="Shape"></path>
                <path d="M43.273,10.367 C43.273,10.367 42.565,9.829 42.565,8.998 C42.565,8.166 43.221,7.584 43.651,7.458 C44.082,7.332 44.538,7.23 45.524,8.014 C46.511,8.798 48.535,10.19 51.214,14.566 C52.481,16.817 53.315,18.967 53.794,21.624 C54.149,23.774 54.554,28.25 52.782,32.956 C52.454,33.588 51.923,33.967 51.088,33.967 C50.253,33.967 49.52,32.905 49.672,32.02 C49.823,31.135 50.734,29.997 50.835,25.141 C50.811,23.395 50.582,21.119 49.317,18.007 C48.483,16.26 47.168,13.529 43.273,10.367 Z" id="Shape"></path>
                <path d="M12.633,0.728 C12.633,0.728 13.443,-0.233 14.454,0.07 C15.466,0.374 15.579,1.032 15.675,1.361 C15.769,1.689 15.745,2.322 14.986,2.98 C14.228,3.637 11.976,5.763 10.711,7.457 C9.446,9.152 5.551,14.794 4.64,21.017 C4.033,25.924 3.629,28.908 5.298,34.827 C6.259,37.863 7.069,39.836 7.069,39.836 C7.069,39.836 7.904,41.102 7.373,41.91 C6.841,42.72 6.184,42.871 5.602,42.72 C5.02,42.569 4.742,42.341 4.311,41.506 C3.881,40.672 1.688,36.532 0.98,29.146 C0.812,26.683 0.645,22.469 2.229,17.208 C2.801,14.981 3.443,13.126 6.175,8.236 C8.771,4.559 9.749,3.407 12.633,0.728 Z" id="Shape"></path>
                <path d="M20.729,10.367 C20.729,10.367 21.437,9.829 21.437,8.998 C21.437,8.165 20.779,7.584 20.349,7.457 C19.919,7.331 19.464,7.229 18.477,8.014 C17.49,8.799 15.466,10.19 12.785,14.567 C11.52,16.818 10.685,18.968 10.205,21.625 C9.851,23.775 9.446,28.251 11.217,32.957 C11.546,33.589 12.077,33.968 12.912,33.968 C13.747,33.968 14.48,32.906 14.328,32.021 C14.177,31.136 13.266,29.998 13.165,25.142 C13.19,23.396 13.418,21.12 14.683,18.008 C15.516,16.26 16.832,13.529 20.729,10.367 Z" id="Shape"></path>
            </g>
            <path d="M44.507,49.563 L44.507,19.227 C44.507,17.932 43.778,16.88 42.887,16.88 L20.983,16.88 C20.076,16.88 19.364,17.932 19.364,19.227 L19.364,51.038 C19.364,51.203 19.38,51.362 19.397,51.509 L19.397,51.525 C19.478,58.421 25.096,63.99 32.024,63.99 C38.986,63.99 44.636,58.34 44.636,51.363 C44.636,50.746 44.589,50.149 44.507,49.563 Z M31.999,59.562 C27.372,59.562 23.503,56.34 22.495,52.022 C22.474,51.823 22.386,50.892 22.32,48.67 C22.33,48.587 22.327,48.502 22.339,48.416 C22.314,48.202 22.308,47.983 22.296,47.764 C22.266,46.469 22.245,44.84 22.245,42.773 L22.245,22.449 C22.245,21.449 22.795,20.637 23.495,20.637 L40.407,20.637 C41.095,20.637 41.656,21.45 41.656,22.449 L41.656,43.737 C41.656,43.737 41.516,52.13 41.313,52.744 C40.062,56.698 36.367,59.562 31.999,59.562 Z" id="Shape"></path>
        </g>
    </g>
</svg>